<?xml version="1.0" encoding="iso-8859-1"?>
<!-- Generator: Adobe Illustrator 22.0.1, SVG Export Plug-In . SVG Version: 6.00 Build 0)  -->
<svg version="1.1" xmlns="http://www.w3.org/2000/svg" xmlns:xlink="http://www.w3.org/1999/xlink" x="0px" y="0px"
	 viewBox="0 0 64 64" style="enable-background:new 0 0 64 64;" xml:space="preserve">
<g id="_x31_2">
	<path style="fill:#90B74B;" d="M27.577,42.132c0,0-7.875,6.986-15.645,3.605S1.14,41.099,1.14,41.099s7.601-4.311,9.929-6.138
		s17.817,4.205,17.904,3.437s-17.844-7.025-19.646-9.806s0.431-13.66-0.806-17.637S6.944,5.732,6.944,5.732s4.559,3.069,9.621,3.619
		s11.865,9.106,13.943,27.586c1.33-6.019-2.234-25.58,11.182-31.481c6.292-3.655,4.554-5.114,6.845-5.443
		c2.291-0.329-1.292,6.157-0.045,7.453s9.247,8.781,0.654,17.083S31.755,38.232,31.755,38.232s19.041-9.82,25.124-5.532
		s9.3,12.784,0.855,16.731s-24.341-7.927-24.341-7.927s7.233,9.034,6.283,19.71c0,0-15.85-0.278-10.336-18.751
		C17.131,62.024,17.523,64,17.523,64l-1.941-2.743L27.577,42.132z"/>
	<path style="fill:#AAD15D;" d="M29.341,42.464c-5.514,18.472,10.336,18.751,10.336,18.751c0.949-10.676-6.283-19.71-6.283-19.71
		s15.896,11.873,24.341,7.927s5.228-12.442-0.855-16.731s-25.124,5.532-25.124,5.532L29.341,42.464z"/>
</g>
<g id="Layer_1">
</g>
</svg>
