<?xml version="1.0" encoding="iso-8859-1"?>
<!-- Generator: Adobe Illustrator 22.0.1, SVG Export Plug-In . SVG Version: 6.00 Build 0)  -->
<svg version="1.1" xmlns="http://www.w3.org/2000/svg" xmlns:xlink="http://www.w3.org/1999/xlink" x="0px" y="0px"
	 viewBox="0 0 64 64" style="enable-background:new 0 0 64 64;" xml:space="preserve">
<g id="_x35_">
	<path style="fill:#90B74B;" d="M30.543,46.506c-1.261,4.21-2.166,9.589-3.014,13.151c-1.553,6.547-7.167,4.21-9.197,2.465
		c-2.023-1.738,4.168-1.482,7.516-6.355c1.56-2.273,2.066-6.248,2.159-9.831c0.598-0.007,0.962,0.043,0.962,0.043
		S29.624,46.079,30.543,46.506z"/>
	<path style="fill:#AAD15D;" d="M57.565,36.775c0,0-4.346,2.095-2.244,6.227c-5.137,1.304-1.304,6.732-1.304,6.732
		s-9.703,0.648-11.149,5.649c-1.667-1.525-6.013-1.738-6.732-0.435c-1.047-4.859-3.819-6.903-5.592-7.73
		c-0.919-0.427-1.574-0.527-1.574-0.527s0.342-2.857,0.883-7.153C31.427,27,34.682,2.173,36,0.135
		c0.178-0.278,0.321-0.135,0.42,0.506c1.09,7.024,7.822,9.632,7.822,9.632s-0.648,6.369,4.054,8.613
		c-1.952,5.286-2.095,5.507,5.721,5.87c0,0-4.994,1.66,7.822,5.279C56.482,31.054,57.565,36.775,57.565,36.775z"/>
	<path style="fill:#90B74B;" d="M30.251,39.653c-0.762,4.232-1.282,7.039-1.282,7.039s-0.363-0.05-0.962-0.043
		c-1.924,0.029-6.276,0.67-9.183,5.628c-0.278-1.46-4.474-2.607-6.533-1.681c0.178-5.201-8.834-8.841-8.834-8.841
		s5.336-3.968,0.855-6.804c3.284-3.27-0.192-6.618-0.192-6.618s2.814-5.101-1.959-7.73c13.301,0.549,9.076-2.586,9.076-2.586
		c7.545,2.087,7.473,1.838,7.26-3.79c5.172-0.67,6.54-6.925,6.54-6.925s7.21-0.385,10.43-6.718C35.722,0.085,35.893-0.05,36,0.135
		C36.905,1.695,32.509,27.029,30.251,39.653z"/>
</g>
<g id="Layer_1">
</g>
</svg>
