<?xml version="1.0" encoding="utf-8"?>
<!-- Generator: Adobe Illustrator 26.3.1, SVG Export Plug-In . SVG Version: 6.00 Build 0)  -->
<svg version="1.1" id="OBJECTS" xmlns="http://www.w3.org/2000/svg" xmlns:xlink="http://www.w3.org/1999/xlink" x="0px" y="0px"
	 width="150px" height="150px" viewBox="0 0 150 150" enable-background="new 0 0 150 150" xml:space="preserve">
<g>
	<g>
		<path fill="#19775E" d="M86.4,86.8c-13.8-3.9-34.8,3.8-43,13.1c12.6,12,32.2,3.6,40.6-1.1c8.4-4.8,12.2-8.9,12.3-9.9
			C96.5,87.9,94.6,89.1,86.4,86.8z"/>
	</g>
	<g>
		<path fill="#6DAA68" d="M86.7,91.4c-1.8,0.7-4.4,0.6-7.7,0.4c-7.6-0.4-19-0.9-36,7.3c-0.4,0.2-0.6,0.7-0.4,1.1
			c0.1,0.3,0.4,0.5,0.7,0.5c0.1,0,0.2,0,0.4-0.1c16.6-8.1,27.8-7.5,35.2-7.2c3.5,0.2,6.2,0.3,8.4-0.5c0.4-0.2,0.6-0.6,0.5-1
			C87.6,91.5,87.1,91.3,86.7,91.4z"/>
	</g>
	<g>
		<path fill="#6DAA68" d="M100.2,28.8c-0.4,0-0.8,0.3-0.9,0.8c-0.8,11.8-11.6,32.1-30.7,48.1c-2.6,2.2-5.5,4.5-8.2,6.6
			c-19.3,15.4-39.3,31.3-37.8,63.2c0,0.4,0.4,0.8,0.8,0.8c0,0,0,0,0,0c0.4,0,0.8-0.4,0.8-0.8c-1.4-31.1,18.3-46.7,37.2-61.9
			c2.7-2.2,5.5-4.4,8.2-6.6c9.4-7.9,17.4-17.2,23.2-27c4.8-8.1,7.7-16.2,8.1-22.3C101,29.2,100.6,28.9,100.2,28.8z"/>
	</g>
	<g>
		<path fill="#6DAA68" d="M61.1,60.2c-0.4,0.1-0.7,0.5-0.6,0.9c0,0.1,2.5,13.8-3.6,26.1c-0.2,0.4,0,0.9,0.4,1.1
			c0.1,0.1,0.2,0.1,0.4,0.1c0.3,0,0.6-0.2,0.7-0.5c6.3-12.8,3.9-26.5,3.8-27.1C62,60.4,61.6,60.1,61.1,60.2z"/>
	</g>
	<g>
		<path fill="#6DAA68" d="M84,30.7c-0.3,0.3-0.4,0.8-0.1,1.1c8.4,10.6,7.4,17.4,7,20.3c-0.1,0.4,0.2,0.8,0.7,0.9c0,0,0.1,0,0.1,0
			c0.4,0,0.7-0.3,0.8-0.7c0.7-4.8,0.5-11.7-7.3-21.5C84.9,30.5,84.3,30.4,84,30.7z"/>
	</g>
	<g>
		<path fill="#6DAA68" d="M125.3,27c-0.6,0-15.8,1.1-28.7,13.4c-0.3,0.3-0.3,0.8,0,1.1c0.2,0.2,0.4,0.2,0.6,0.2
			c0.2,0,0.4-0.1,0.6-0.2c12.5-12,27.5-13,27.6-13c0.4,0,0.8-0.4,0.8-0.9C126.2,27.3,125.8,27,125.3,27z"/>
	</g>
	<g>
		<path fill="#6DAA68" d="M122.9,17.2c-0.4-0.1-0.9,0.2-1,0.6c0,0-1.3,4.8-7,11.7c-0.3,0.3-0.2,0.9,0.1,1.1c0.2,0.1,0.3,0.2,0.5,0.2
			c0.2,0,0.5-0.1,0.6-0.3c6-7.2,7.2-12.2,7.3-12.4C123.6,17.7,123.3,17.3,122.9,17.2z"/>
	</g>
	<g>
		<path fill="#6DAA68" d="M118.6,69.6c-7-2.8-17.8-4.6-45.1,3.9c-0.4,0.1-0.7,0.6-0.5,1c0.1,0.3,0.4,0.6,0.8,0.6c0.1,0,0.2,0,0.2,0
			c26.8-8.3,37.3-6.6,44.1-3.9c0.4,0.2,0.9,0,1.1-0.4C119.2,70.2,119,69.8,118.6,69.6z"/>
	</g>
	<g>
		<path fill="#6DAA68" d="M111.8,56.4c-0.4-0.2-0.9-0.1-1.1,0.3c-4.3,7.9-9.7,10.6-9.8,10.6c-0.4,0.2-0.6,0.7-0.4,1.1
			c0.1,0.3,0.4,0.5,0.7,0.5c0.1,0,0.2,0,0.4-0.1c0.2-0.1,5.9-2.9,10.5-11.3C112.4,57.1,112.2,56.6,111.8,56.4z"/>
	</g>
	<g>
		<g>
			<path fill="#EFC0BF" d="M66.3,48.3c-0.8-0.4-0.7,1.4-1.6-0.2c-0.9-1.6-1.8-2.4-3-2c-1.2,0.4-0.4,3.7-1.7,3.7
				c-1.2,0-2.7-2.8-4.3-1.6c-1.6,1.2-0.8,6,1.6,8.6c2.4,2.5,8.3-0.9,8.6-1.8C67.5,50.9,67.2,48.8,66.3,48.3z"/>
		</g>
		<g>
			<path fill="#19775E" d="M64.3,53.7c-0.9-1.1-2.3-0.3-3,0.6s-0.3-0.8-2.1-0.9c-1.8-0.1-1.3,1.3-2.1,1.1c-0.8-0.2-1.9,0.7-1.7,1.5
				c1.9,5.4,5.6,6.8,8.3,5.6c2.8-1.2,3.8-5.7,3.3-7.6C66.7,52.2,65.2,54.8,64.3,53.7z"/>
		</g>
	</g>
	<g>
		<g>
			<path fill="#EFC0BF" d="M82.7,20.3c-0.9,0,0.1,1.5-1.4,0.6c-1.5-0.9-2.6-1.1-3.4-0.2c-0.8,0.9,1.4,3.2,0.4,3.8
				c-1,0.6-3.5-1-4.2,0.7c-0.7,1.8,2.3,5.3,5.4,6.2c3.1,0.9,6.3-4.8,6.1-5.6C84.9,21.8,83.6,20.3,82.7,20.3z"/>
		</g>
		<g>
			<path fill="#19775E" d="M83.7,25.6c-1.3-0.5-2,0.9-2.1,1.9c-0.1,1.1-0.6-0.5-2.1,0.3c-1.5,0.8-0.4,1.7-1.2,1.9
				c-0.8,0.3-1.3,1.5-0.6,2c4.2,3.4,7.8,2.8,9.5,0.5c1.7-2.3,0.3-6.5-1-7.7C84.9,23.2,85,26.1,83.7,25.6z"/>
		</g>
	</g>
	<g>
		<g>
			<path fill="#EFC0BF" d="M108.2,17.9c-0.2-2-0.7-3.1-2-3.3c-1.3-0.1-2,3.4-3.2,2.9c-1.2-0.6-1.4-3.9-3.5-3.4
				c-2.1,0.5-3.4,5.6-2.1,9c1.2,3.5,8.5,2.7,9.2,2c3.1-3.4,3.8-5.6,3.1-6.4C109,18,108.4,19.9,108.2,17.9z"/>
		</g>
		<g>
			<path fill="#19775E" d="M105.4,23.1c-0.4-1.5-2.1-1.3-3.2-0.7c-1.1,0.6,0.1-0.9-1.6-1.8c-1.7-0.9-1.8,0.7-2.5,0.1
				c-0.7-0.5-2.2-0.2-2.3,0.7c-0.5,6.1,2.5,9,5.7,9.1c3.2,0.1,6.2-3.9,6.5-5.9C108.3,22.7,105.8,24.6,105.4,23.1z"/>
		</g>
	</g>
	<g>
		<g>
			<path fill="#EFC0BF" d="M130.8,6.3c-0.2-1.8-0.6-2.9-1.9-3c-1.3-0.1-1.9,3.2-3,2.7c-1.1-0.5-1.3-3.7-3.2-3.2
				c-1.9,0.5-3.2,5.2-2,8.5c1.1,3.3,8,2.5,8.6,1.9c2.9-3.2,3.5-5.2,2.9-6C131.6,6.4,130.9,8.2,130.8,6.3z"/>
		</g>
		<g>
			<path fill="#19775E" d="M128.1,11.2c-0.4-1.4-2-1.2-3-0.7c-1,0.5,0.1-0.8-1.5-1.6c-1.6-0.8-1.7,0.6-2.4,0.1
				c-0.7-0.5-2-0.2-2.1,0.7c-0.4,5.7,2.3,8.4,5.3,8.5c3,0.1,5.8-3.7,6.1-5.5C130.9,10.8,128.5,12.6,128.1,11.2z"/>
		</g>
	</g>
	<g>
		<g>
			<path fill="#EFC0BF" d="M122.1,50.8c0.8-1.7,0.9-2.9-0.2-3.6c-1-0.7-3.2,1.9-3.9,0.9c-0.7-1,0.7-3.8-1.2-4.4
				c-1.9-0.5-5.3,3-5.9,6.4c-0.6,3.4,5.7,6.1,6.6,5.8c4.1-1.3,5.6-2.8,5.5-3.8C122.8,51.3,121.4,52.5,122.1,50.8z"/>
		</g>
		<g>
			<path fill="#19775E" d="M117.4,53.8c0.4-1.4-1.1-2-2.3-2c-1.1,0,0.5-0.7-0.5-2.2c-1-1.5-1.8-0.3-2.1-1s-1.7-1.2-2.2-0.5
				c-3.2,4.8-2.1,8.5,0.5,10c2.6,1.5,6.9-0.4,8-1.8C120.1,54.8,117.1,55.2,117.4,53.8z"/>
		</g>
	</g>
	<g>
		<g>
			<path fill="#EFC0BF" d="M133.6,26.9c0.1-0.9,2.2-1.9,1.4-3.1c-0.8-1.2-4.4-0.8-6.4,0.9c-1.9,1.7,0.4,6.2,1,6.4
				c2.9,1.2,4.5,1,4.9,0.4c0.4-0.6-1-0.5,0.2-1.2c1.2-0.6,1.9-1.2,1.6-2.1C135.9,27.4,133.5,27.9,133.6,26.9z"/>
		</g>
		<g>
			<path fill="#19775E" d="M130.2,27.7c-0.6-0.5,0.6-0.2,0.7-1.5s-0.9-1-0.7-1.6c0.2-0.6-0.4-1.5-1-1.3c-4,1.2-5.2,3.9-4.4,5.9
				s4.1,3,5.4,2.7c1.4-0.3-0.5-1.5,0.4-2.1C131.4,29.3,130.9,28.2,130.2,27.7z"/>
		</g>
	</g>
	<g>
		<g>
			<path fill="#EFC0BF" d="M122,67.7c-2.5,0.5-2.6,5.6-2.2,6.1c2,2.5,3.5,3.1,4.1,2.7c0.6-0.4-0.6-1,0.7-0.9
				c1.4,0.1,2.2-0.2,2.4-1.1c0.2-0.9-2.2-1.7-1.7-2.5s2.8-0.6,2.7-2C127.8,68.5,124.5,67.2,122,67.7z"/>
		</g>
		<g>
			<path fill="#19775E" d="M123.3,66.8c-4.1-0.9-6.4,0.9-6.8,3.1c-0.3,2.2,2.1,4.6,3.4,5c1.3,0.4,0.2-1.5,1.3-1.7
				c1.1-0.1,1.1-1.3,0.8-2.1c-0.3-0.8,0.6,0.1,1.4-1c0.7-1.1-0.3-1.3,0.1-1.8C124,67.9,123.9,66.9,123.3,66.8z"/>
		</g>
	</g>
	<g>
		<path fill="#19775E" d="M38.1,60.9c0.1,1.6-6.1,20.3-15.7,34.9c-9.6,14.6-12.2,25.3,1.4,40.5c-3-6.5-0.3-14.8,8.2-27.4
			c8.5-12.6,13.7-16.5,13.2-32.6C44.6,60.3,38,59.4,38.1,60.9z"/>
	</g>
	<g>
		<path fill="#6DAA68" d="M39.7,76.2C39.7,76.2,39.7,76.2,39.7,76.2c-0.5,0-0.8,0.4-0.8,0.8c0.2,6.5-4,13.5-8.5,21
			c-6.9,11.5-14.7,24.6-7.3,38.7c0.1,0.3,0.4,0.4,0.7,0.4c0.1,0,0.3,0,0.4-0.1c0.4-0.2,0.5-0.7,0.3-1.1c-6.9-13.3,0.3-25.4,7.3-37.1
			c4.6-7.6,8.9-14.9,8.7-21.8C40.5,76.6,40.1,76.2,39.7,76.2z"/>
	</g>
</g>
</svg>
